<?xml version="1.0" encoding="utf-8"?>
<!-- Generator: Adobe Illustrator 28.0.0, SVG Export Plug-In . SVG Version: 6.00 Build 0)  -->
<svg version="1.1" id="Layer_1" xmlns="http://www.w3.org/2000/svg" xmlns:xlink="http://www.w3.org/1999/xlink" x="0px" y="0px"
	 viewBox="0 0 103.2 122.9" style="enable-background:new 0 0 103.2 122.9;" xml:space="preserve">
<style type="text/css">
	.st0{fill-rule:evenodd;clip-rule:evenodd;fill:#535353;}
</style>
<path class="st0" d="M17.2,0h82.7c1.8,0,3.3,1.5,3.3,3.3v92.3c-0.2,2.6-3.5,2.6-7.1,2.5H15.9c-5,0-9.1,4.1-9.1,9.1s4.1,9.1,9.1,9.1
	h80.2v-9.6h7.1v12.2c0,2.2-1.8,4.1-4.1,4.1H16.3c-9,0-16.3-7.3-16.3-16.3V17.2C0,7.7,7.7,0,17.2,0z M20.4,13.4h2.9
	c1.5,0,2.7,1,2.7,2.1V83c0,1.2-1.2,2.2-2.7,2.2h-2.9c-1.5,0-2.7-1-2.7-2.2V15.6C17.7,14.4,18.9,13.4,20.4,13.4z"/>
</svg>
