<svg id="Layer_1" data-name="Layer 1" xmlns="http://www.w3.org/2000/svg" viewBox="0 0 673.83 144"><defs><style>.cls-1{fill:#5a481c;}</style></defs><path class="cls-1" d="M66.66,86.44h-.32c-3.34,14.51-18.19,23-32.21,23C11.33,109.41,0,91.21,0,70.16,0,48.16,12.15,30,35.24,30c15.65,0,27.92,10.37,31.1,23.76h.32V31.89h3.19v79.26c0,22.32-12.76,32.85-34.14,32.85-16.58,0-30.78-7.49-31.26-25.84H7.66c.64,16.27,13.08,22.65,27.89,22.65,19.79,0,31.11-9.4,31.11-29.66ZM35.24,33.18c-21.21,0-32.06,17.06-32.06,37C3.18,90.41,14,106.23,34,106.23c21.07,0,32.56-16.3,32.56-36.07C66.66,51.34,55.83,33.18,35.24,33.18Z"/><path class="cls-1" d="M115.79,30c23.92,0,36.82,20.58,36.82,42.9,0,22.48-12.9,42.89-37,42.89-23.91,0-36.85-20.41-36.85-42.89C78.77,50.56,91.71,30,115.79,30Zm0,82.6c21.83,0,33.64-19,33.64-39.7,0-20.42-11.81-39.7-33.64-39.7C93.61,33.18,82,52.46,82,72.88,82,93.61,93.61,112.58,115.79,112.58Z"/><path class="cls-1" d="M194.57,30c23.91,0,36.82,20.58,36.82,42.9,0,22.48-12.91,42.89-37,42.89s-36.84-20.41-36.84-42.89C157.57,50.56,170.48,30,194.57,30Zm0,82.6c21.86,0,33.64-19,33.64-39.7,0-20.42-11.78-39.7-33.64-39.7-22.17,0-33.82,19.28-33.82,39.7C160.75,93.61,172.4,112.58,194.57,112.58Z"/><path class="cls-1" d="M304.44,0h3.19V113.86h-3.19v-23h-.33C300,105.25,288,115.77,271.27,115.77c-21.7,0-34.94-18-34.94-42.73,0-23,12.3-43.06,34.94-43.06,17.39,0,29,10.06,32.84,24.87h.33ZM271.27,33.18c-22.49,0-31.73,20.88-31.73,39.86,0,21,10.52,39.54,31.73,39.54,21.05,0,33.17-18.32,33.17-39.54C304.44,47.68,291.2,33.18,271.27,33.18Z"/><path class="cls-1" d="M323.09,31.58h9.25V50.87h.33c5.1-13.25,16.25-21.06,31.1-20.4v10c-18.2-1-30.62,12.42-30.62,29.49v43.86H323.09Z"/><path class="cls-1" d="M372.38,75.43c.15,14.68,7.81,32.36,27.09,32.36,14.69,0,22.65-8.6,25.83-21h10.07c-4.31,18.66-15.16,29.49-35.9,29.49-26.12,0-37.14-20.1-37.14-43.52,0-21.7,11-43.55,37.14-43.55,26.49,0,37,23.14,36.21,46.25ZM425.63,67c-.46-15.15-9.89-29.36-26.16-29.36C383.05,37.62,374,52,372.38,67Z"/><path class="cls-1" d="M444.3,56.78c.94-19.3,14.51-27.6,33.33-27.6,14.54,0,30.34,4.47,30.34,26.46V99.35c0,3.84,1.92,6.07,5.92,6.07a9.5,9.5,0,0,0,3.18-.65v8.45a27.65,27.65,0,0,1-6.56.64c-10.2,0-11.82-5.73-11.82-14.36h-.28c-7,10.68-14.22,16.75-30.05,16.75-15.12,0-27.57-7.47-27.57-24.08,0-23.12,22.48-23.91,44.18-26.46,8.31-1,12.94-2.09,12.94-11.17,0-13.56-9.73-16.92-21.56-16.92-12.44,0-21.67,5.76-22,19.16Zm53.61,12.1h-.32c-1.27,2.4-5.76,3.21-8.45,3.68-17.09,3-38.3,2.87-38.3,19,0,10,8.93,16.26,18.35,16.26,15.31,0,28.89-9.72,28.72-25.82Z"/><path class="cls-1" d="M596.49,113.86h-9.23V98.24h-.33c-4.31,10.68-17.39,18-29.34,18-25.07,0-37-20.24-37-43.52s11.94-43.55,37-43.55c12.27,0,24.22,6.22,28.52,18h.35V0h10Zm-38.9-6.07c21.35,0,28.87-18,28.87-35.06s-7.52-35.11-28.87-35.11c-19.14,0-27,18-27,35.11S538.45,107.79,557.59,107.79Z"/><path class="cls-1" d="M660.93,55.64c-.5-12.43-10-18-21.54-18-8.94,0-19.44,3.52-19.44,14.21,0,8.92,10.19,12.11,17.06,13.88l13.39,3c11.47,1.76,23.43,8.46,23.43,22.81,0,17.88-17.67,24.72-33,24.72-19.14,0-32.21-8.93-33.81-29h10c.82,13.54,10.86,20.56,24.26,20.56,9.38,0,22.47-4.14,22.47-15.62,0-9.56-8.92-12.75-18-15l-12.93-2.86c-13.07-3.5-23-8-23-22,0-16.75,16.43-23.14,31-23.14,16.42,0,29.52,8.63,30.14,26.46Z"/></svg>